#N canvas 0 0 1914 976 10;
#X obj 475 -8750 hidin;
#X obj 509 -8714 print DEVICES;
#X msg 472 -8793 bang;
#X msg 398 -8791 open 5;
#X obj 536 -8796 tgl 15 0 empty empty empty 17 7 0 10 -262144 -1 -1
1 1;
#X msg 580 -8791 close;
#X obj 364 -8714 route 1 2 3 4 5 14 15;
#X obj 329 -8641 print;
#X text 218 -8672 y_axis_left;
#X obj 411 -8661 print;
#X text 336 -8511 x_axis_left;
#X obj 310 -8555 vsl 15 128 0 255 0 0 empty empty empty 0 -9 0 10 -262144
-1 -1 6325 1;
#X obj 297 -8670 expr ($f1-255)*-1;
#X obj 256 -8494 hsl 128 15 0 255 0 0 empty empty empty -2 -8 0 10
-262144 -1 -1 6375 1;
#X text 486 -8665 y_axis_left;
#X text 576 -8508 x_axis_left;
#X obj 550 -8552 vsl 15 128 0 255 0 0 empty empty empty 0 -9 0 10 -262144
-1 -1 6325 1;
#X obj 563 -8665 expr ($f1-255)*-1;
#X obj 496 -8491 hsl 128 15 0 255 0 0 empty empty empty -2 -8 0 10
-262144 -1 -1 6375 1;
#X obj 197 -8589 route 15;
#X obj 93 -8595 route 6 0 2 4;
#X obj 721 -8705 symbol;
#X obj 731 -8676 makefilename %s/battery-clock.wav;
#X msg 721 -8732 audios/ambientales;
#X obj 932 -8130 dac~;
#X obj 1094 -9265 sampler3;
#X text 719 -8754 Sonidos ambientales;
#X obj 700 -8626 makefilename %s/underwater.wav;
#X obj 721 -8544 symbol;
#X text 719 -8593 Sonidos incidentales;
#X msg 721 -8571 audios/incidentales;
#X obj 739 -8515 makefilename %s/cellphone-vibrating-on-a-table.wav
;
#X obj 720 -8490 makefilename %s/conecting.wav;
#X obj 702 -8462 makefilename %s/footsteps-concrete.wav;
#X obj 681 -8438 makefilename %s/hojas-papel.wav;
#X obj 658 -8410 makefilename %s/mordisco-manzana.wav;
#X obj 719 -8334 symbol;
#X obj 679 -8228 makefilename %s/hojas-papel.wav;
#X text 717 -8383 Sonidos efectos;
#X obj 656 -8200 makefilename %s/lazer1.wav;
#X obj 637 -8172 makefilename %s/lazer2.wav;
#X obj 614 -8147 makefilename %s/lazer3.wav;
#X obj 593 -8117 makefilename %s/lazer4.wav;
#X obj 570 -8087 makefilename %s/lazer5.wav;
#X msg 719 -8361 audios/efectos;
#X obj 553 -8061 makefilename %s/lazer6.wav;
#X obj 737 -8305 makefilename %s/balacera.wav;
#X obj 718 -8280 makefilename %s/chorro-agua.wav;
#X obj 700 -8252 makefilename %s/firework.wav;
#X obj 934 -8159 +~;
#X obj 1101 -8747 sampler3;
#X obj 340 -8842 loadbang;
#X obj 719 -8651 makefilename %s/ambiance-food-market.wav;
#X obj 548 -8412 expr $f1/255;
#X obj 308 -8411 expr $f1/255;
#X obj 49 -8465 bng 15 250 50 0 empty empty empty 17 7 0 10 -262144
-1 -1;
#X obj 116 -8509 bng 15 250 50 0 empty empty empty 17 7 0 10 -262144
-1 -1;
#X obj 177 -8465 bng 15 250 50 0 empty empty empty 17 7 0 10 -262144
-1 -1;
#X obj 92 -8425 bng 15 250 50 0 empty empty empty 17 7 0 10 -262144
-1 -1;
#X obj 1602 -8746 sampler3;
#X obj 464 -8464 expr ($f1/255)*2;
#X obj 215 -8464 expr ($f1/255)*2;
#X connect 0 0 6 0;
#X connect 0 1 1 0;
#X connect 2 0 0 0;
#X connect 3 0 0 0;
#X connect 4 0 0 0;
#X connect 5 0 0 0;
#X connect 6 0 7 0;
#X connect 6 0 12 0;
#X connect 6 1 13 0;
#X connect 6 2 17 0;
#X connect 6 3 18 0;
#X connect 6 4 19 0;
#X connect 6 4 20 0;
#X connect 11 0 54 0;
#X connect 12 0 11 0;
#X connect 13 0 61 0;
#X connect 16 0 53 0;
#X connect 17 0 16 0;
#X connect 18 0 60 0;
#X connect 20 0 55 0;
#X connect 20 1 56 0;
#X connect 20 2 57 0;
#X connect 20 3 58 0;
#X connect 21 0 22 0;
#X connect 21 0 27 0;
#X connect 21 0 52 0;
#X connect 22 0 50 0;
#X connect 23 0 21 0;
#X connect 25 0 49 0;
#X connect 28 0 31 0;
#X connect 28 0 32 0;
#X connect 28 0 33 0;
#X connect 28 0 34 0;
#X connect 28 0 35 0;
#X connect 30 0 28 0;
#X connect 35 0 59 0;
#X connect 36 0 37 0;
#X connect 36 0 39 0;
#X connect 36 0 46 0;
#X connect 36 0 47 0;
#X connect 36 0 48 0;
#X connect 36 0 40 0;
#X connect 44 0 36 0;
#X connect 44 0 41 0;
#X connect 44 0 42 0;
#X connect 44 0 43 0;
#X connect 44 0 45 0;
#X connect 49 0 24 0;
#X connect 49 0 24 1;
#X connect 50 0 49 1;
#X connect 51 0 3 0;
#X connect 51 0 4 0;
#X connect 51 0 23 0;
#X connect 51 0 30 0;
#X connect 51 0 44 0;
#X connect 52 0 25 0;
#X connect 53 0 25 1;
#X connect 54 0 50 1;
#X connect 55 0 25 3;
#X connect 56 0 25 4;
#X connect 56 0 59 5;
#X connect 57 0 25 6;
#X connect 58 0 25 5;
#X connect 58 0 59 4;
#X connect 59 0 49 1;
#X connect 60 0 59 1;
#X connect 60 0 25 2;
#X connect 61 0 59 2;
